<mxfile host="Electron" agent="Mozilla/5.0 (Macintosh; Intel Mac OS X 10_15_7) AppleWebKit/537.36 (KHTML, like Gecko) draw.io/27.0.5 Chrome/134.0.6998.205 Electron/35.3.0 Safari/537.36" version="27.0.5">
  <diagram name="Page-1" id="ZVzS0hWE6rFlb-wLMT9V">
    <mxGraphModel dx="1190" dy="694" grid="1" gridSize="10" guides="1" tooltips="1" connect="1" arrows="1" fold="1" page="1" pageScale="1" pageWidth="827" pageHeight="1169" math="0" shadow="0">
      <root>
        <mxCell id="0" />
        <mxCell id="1" parent="0" />
        <mxCell id="wI3hIcFJyoDZbVb4rXhT-1" value="&lt;font style=&quot;font-size: 20px;&quot;&gt;Desktop&lt;br&gt;App&lt;/font&gt;" style="rounded=0;whiteSpace=wrap;html=1;" vertex="1" parent="1">
          <mxGeometry x="50" y="180" width="90" height="60" as="geometry" />
        </mxCell>
        <mxCell id="wI3hIcFJyoDZbVb4rXhT-2" value="&lt;span style=&quot;font-size: 20px;&quot;&gt;Browser&lt;/span&gt;" style="rounded=0;whiteSpace=wrap;html=1;" vertex="1" parent="1">
          <mxGeometry x="150" y="180" width="90" height="60" as="geometry" />
        </mxCell>
        <mxCell id="wI3hIcFJyoDZbVb4rXhT-3" value="&lt;span style=&quot;font-size: 20px;&quot;&gt;Mobile&lt;br&gt;App&lt;/span&gt;" style="rounded=0;whiteSpace=wrap;html=1;" vertex="1" parent="1">
          <mxGeometry x="250" y="180" width="90" height="60" as="geometry" />
        </mxCell>
        <mxCell id="wI3hIcFJyoDZbVb4rXhT-4" value="&lt;span style=&quot;font-size: 20px;&quot;&gt;Plugin&lt;br&gt;Tester&lt;/span&gt;" style="rounded=0;whiteSpace=wrap;html=1;" vertex="1" parent="1">
          <mxGeometry x="350" y="180" width="90" height="60" as="geometry" />
        </mxCell>
        <mxCell id="wI3hIcFJyoDZbVb4rXhT-5" value="Plugin" style="rounded=1;whiteSpace=wrap;html=1;" vertex="1" parent="1">
          <mxGeometry x="55" y="240" width="40" height="30" as="geometry" />
        </mxCell>
        <mxCell id="wI3hIcFJyoDZbVb4rXhT-6" value="Plugin" style="rounded=1;whiteSpace=wrap;html=1;" vertex="1" parent="1">
          <mxGeometry x="95" y="240" width="40" height="30" as="geometry" />
        </mxCell>
        <mxCell id="wI3hIcFJyoDZbVb4rXhT-7" value="Plugin" style="rounded=1;whiteSpace=wrap;html=1;" vertex="1" parent="1">
          <mxGeometry x="155" y="240" width="40" height="30" as="geometry" />
        </mxCell>
        <mxCell id="wI3hIcFJyoDZbVb4rXhT-8" value="Plugin" style="rounded=1;whiteSpace=wrap;html=1;" vertex="1" parent="1">
          <mxGeometry x="195" y="240" width="40" height="30" as="geometry" />
        </mxCell>
        <mxCell id="wI3hIcFJyoDZbVb4rXhT-9" value="Plugin" style="rounded=1;whiteSpace=wrap;html=1;" vertex="1" parent="1">
          <mxGeometry x="255" y="240" width="40" height="30" as="geometry" />
        </mxCell>
        <mxCell id="wI3hIcFJyoDZbVb4rXhT-10" value="Plugin" style="rounded=1;whiteSpace=wrap;html=1;" vertex="1" parent="1">
          <mxGeometry x="295" y="240" width="40" height="30" as="geometry" />
        </mxCell>
        <mxCell id="wI3hIcFJyoDZbVb4rXhT-11" value="Plugin" style="rounded=1;whiteSpace=wrap;html=1;" vertex="1" parent="1">
          <mxGeometry x="355" y="240" width="40" height="30" as="geometry" />
        </mxCell>
        <mxCell id="wI3hIcFJyoDZbVb4rXhT-12" value="Plugin" style="rounded=1;whiteSpace=wrap;html=1;" vertex="1" parent="1">
          <mxGeometry x="395" y="240" width="40" height="30" as="geometry" />
        </mxCell>
        <mxCell id="wI3hIcFJyoDZbVb4rXhT-15" value="&lt;span style=&quot;font-size: 20px;&quot;&gt;Verifier&lt;br&gt;Server&lt;/span&gt;" style="rounded=0;whiteSpace=wrap;html=1;" vertex="1" parent="1">
          <mxGeometry x="630" y="180" width="90" height="60" as="geometry" />
        </mxCell>
        <mxCell id="wI3hIcFJyoDZbVb4rXhT-16" value="Plugin" style="rounded=1;whiteSpace=wrap;html=1;" vertex="1" parent="1">
          <mxGeometry x="635" y="240" width="40" height="30" as="geometry" />
        </mxCell>
        <mxCell id="wI3hIcFJyoDZbVb4rXhT-17" value="Plugin" style="rounded=1;whiteSpace=wrap;html=1;" vertex="1" parent="1">
          <mxGeometry x="675" y="240" width="40" height="30" as="geometry" />
        </mxCell>
        <mxCell id="wI3hIcFJyoDZbVb4rXhT-18" value="" style="shape=flexArrow;endArrow=classic;startArrow=classic;html=1;rounded=0;width=25.555555555555554;endSize=7.444444444444445;" edge="1" parent="1">
          <mxGeometry width="100" height="100" relative="1" as="geometry">
            <mxPoint x="480" y="220" as="sourcePoint" />
            <mxPoint x="590" y="220" as="targetPoint" />
          </mxGeometry>
        </mxCell>
      </root>
    </mxGraphModel>
  </diagram>
</mxfile>
